<?xml version="1.0" encoding="UTF-8" standalone="no"?>
<!DOCTYPE svg PUBLIC "-//W3C//DTD SVG 1.1//EN"
 "http://www.w3.org/Graphics/SVG/1.1/DTD/svg11.dtd">
<!-- Generated by graphviz version 2.38.0 (20140413.2041)
 -->
<!-- Title: Config Space Pages: 1 -->
<svg width="453pt" height="332pt"
 viewBox="0.00 0.00 453.00 332.00" xmlns="http://www.w3.org/2000/svg" xmlns:xlink="http://www.w3.org/1999/xlink">
<g id="graph0" class="graph" transform="scale(1 1) rotate(0) translate(4 328)">
<title>Config Space</title>
<polygon fill="white" stroke="none" points="-4,4 -4,-328 449,-328 449,4 -4,4"/>
<!-- Classifier -->
<g id="node1" class="node"><title>Classifier</title>
<polygon fill="none" stroke="black" points="220.066,-306 194.533,-324 143.467,-324 117.934,-306 143.467,-288 194.533,-288 220.066,-306"/>
<text text-anchor="middle" x="169" y="-302.3" font-family="Times,serif" font-size="14.00">Classifier</text>
</g>
<!-- SVM -->
<g id="node2" class="node"><title>SVM</title>
<polygon fill="none" stroke="black" points="137,-252 83,-252 83,-216 137,-216 137,-252"/>
<text text-anchor="middle" x="110" y="-230.3" font-family="Times,serif" font-size="14.00">SVM</text>
</g>
<!-- Classifier&#45;&gt;SVM -->
<g id="edge9" class="edge"><title>Classifier&#45;&gt;SVM</title>
<path fill="none" stroke="black" d="M154.416,-287.697C147.342,-279.305 138.717,-269.07 130.955,-259.861"/>
<polygon fill="black" stroke="black" points="133.537,-257.495 124.417,-252.104 128.185,-262.006 133.537,-257.495"/>
</g>
<!-- LDA -->
<g id="node10" class="node"><title>LDA</title>
<polygon fill="none" stroke="black" points="255,-252 201,-252 201,-216 255,-216 255,-252"/>
<text text-anchor="middle" x="228" y="-230.3" font-family="Times,serif" font-size="14.00">LDA</text>
</g>
<!-- Classifier&#45;&gt;LDA -->
<g id="edge17" class="edge"><title>Classifier&#45;&gt;LDA</title>
<path fill="none" stroke="black" d="M183.584,-287.697C190.658,-279.305 199.283,-269.07 207.045,-259.861"/>
<polygon fill="black" stroke="black" points="209.815,-262.006 213.583,-252.104 204.463,-257.495 209.815,-262.006"/>
</g>
<!-- C -->
<g id="node3" class="node"><title>C</title>
<ellipse fill="none" stroke="black" cx="27" cy="-162" rx="27" ry="18"/>
<text text-anchor="middle" x="27" y="-158.3" font-family="Times,serif" font-size="14.00">C</text>
</g>
<!-- SVM&#45;&gt;C -->
<g id="edge1" class="edge"><title>SVM&#45;&gt;C</title>
<path fill="none" stroke="black" d="M89.4831,-215.697C77.8599,-205.894 63.2565,-193.578 51.091,-183.318"/>
<polygon fill="black" stroke="black" points="53.0256,-180.371 43.1247,-176.599 48.5126,-185.722 53.0256,-180.371"/>
</g>
<!-- kernel -->
<g id="node4" class="node"><title>kernel</title>
<polygon fill="none" stroke="black" points="147.549,-162 128.774,-180 91.2256,-180 72.4511,-162 91.2256,-144 128.774,-144 147.549,-162"/>
<text text-anchor="middle" x="110" y="-158.3" font-family="Times,serif" font-size="14.00">kernel</text>
</g>
<!-- SVM&#45;&gt;kernel -->
<g id="edge8" class="edge"><title>SVM&#45;&gt;kernel</title>
<path fill="none" stroke="black" d="M110,-215.697C110,-207.983 110,-198.712 110,-190.112"/>
<polygon fill="black" stroke="black" points="113.5,-190.104 110,-180.104 106.5,-190.104 113.5,-190.104"/>
</g>
<!-- poly -->
<g id="node5" class="node"><title>poly</title>
<polygon fill="none" stroke="black" points="65,-108 11,-108 11,-72 65,-72 65,-108"/>
<text text-anchor="middle" x="38" y="-86.3" font-family="Times,serif" font-size="14.00">poly</text>
</g>
<!-- kernel&#45;&gt;poly -->
<g id="edge3" class="edge"><title>kernel&#45;&gt;poly</title>
<path fill="none" stroke="black" d="M92.2022,-143.697C83.396,-135.135 72.6179,-124.656 62.9989,-115.304"/>
<polygon fill="black" stroke="black" points="65.2028,-112.566 55.593,-108.104 60.3232,-117.585 65.2028,-112.566"/>
</g>
<!-- rbf -->
<g id="node7" class="node"><title>rbf</title>
<polygon fill="none" stroke="black" points="137,-108 83,-108 83,-72 137,-72 137,-108"/>
<text text-anchor="middle" x="110" y="-86.3" font-family="Times,serif" font-size="14.00">rbf</text>
</g>
<!-- kernel&#45;&gt;rbf -->
<g id="edge5" class="edge"><title>kernel&#45;&gt;rbf</title>
<path fill="none" stroke="black" d="M110,-143.697C110,-135.983 110,-126.712 110,-118.112"/>
<polygon fill="black" stroke="black" points="113.5,-118.104 110,-108.104 106.5,-118.104 113.5,-118.104"/>
</g>
<!-- sigmoid -->
<g id="node9" class="node"><title>sigmoid</title>
<polygon fill="none" stroke="black" points="216.5,-108 155.5,-108 155.5,-72 216.5,-72 216.5,-108"/>
<text text-anchor="middle" x="186" y="-86.3" font-family="Times,serif" font-size="14.00">sigmoid</text>
</g>
<!-- kernel&#45;&gt;sigmoid -->
<g id="edge7" class="edge"><title>kernel&#45;&gt;sigmoid</title>
<path fill="none" stroke="black" d="M128.787,-143.697C138.174,-135.05 149.684,-124.449 159.913,-115.027"/>
<polygon fill="black" stroke="black" points="162.445,-117.454 167.43,-108.104 157.703,-112.305 162.445,-117.454"/>
</g>
<!-- degree -->
<g id="node6" class="node"><title>degree</title>
<ellipse fill="none" stroke="black" cx="38" cy="-18" rx="34.394" ry="18"/>
<text text-anchor="middle" x="38" y="-14.3" font-family="Times,serif" font-size="14.00">degree</text>
</g>
<!-- poly&#45;&gt;degree -->
<g id="edge2" class="edge"><title>poly&#45;&gt;degree</title>
<path fill="none" stroke="black" d="M38,-71.6966C38,-63.9827 38,-54.7125 38,-46.1124"/>
<polygon fill="black" stroke="black" points="41.5001,-46.1043 38,-36.1043 34.5001,-46.1044 41.5001,-46.1043"/>
</g>
<!-- coef0 -->
<g id="node8" class="node"><title>coef0</title>
<ellipse fill="none" stroke="black" cx="151" cy="-18" rx="30.5947" ry="18"/>
<text text-anchor="middle" x="151" y="-14.3" font-family="Times,serif" font-size="14.00">coef0</text>
</g>
<!-- rbf&#45;&gt;coef0 -->
<g id="edge4" class="edge"><title>rbf&#45;&gt;coef0</title>
<path fill="none" stroke="black" d="M120.135,-71.6966C125.044,-63.316 131.028,-53.0983 136.416,-43.8988"/>
<polygon fill="black" stroke="black" points="139.51,-45.5423 141.544,-35.1446 133.47,-42.0045 139.51,-45.5423"/>
</g>
<!-- sigmoid&#45;&gt;coef0 -->
<g id="edge6" class="edge"><title>sigmoid&#45;&gt;coef0</title>
<path fill="none" stroke="black" d="M177.348,-71.6966C173.262,-63.5234 168.302,-53.6031 163.792,-44.5839"/>
<polygon fill="black" stroke="black" points="166.914,-43.0013 159.311,-35.6223 160.653,-46.1319 166.914,-43.0013"/>
</g>
<!-- n_components -->
<g id="node11" class="node"><title>n_components</title>
<ellipse fill="none" stroke="black" cx="228" cy="-162" rx="62.2891" ry="18"/>
<text text-anchor="middle" x="228" y="-158.3" font-family="Times,serif" font-size="14.00">n_components</text>
</g>
<!-- LDA&#45;&gt;n_components -->
<g id="edge10" class="edge"><title>LDA&#45;&gt;n_components</title>
<path fill="none" stroke="black" d="M228,-215.697C228,-207.983 228,-198.712 228,-190.112"/>
<polygon fill="black" stroke="black" points="231.5,-190.104 228,-180.104 224.5,-190.104 231.5,-190.104"/>
</g>
<!-- solver -->
<g id="node12" class="node"><title>solver</title>
<polygon fill="none" stroke="black" points="383.549,-162 364.774,-180 327.226,-180 308.451,-162 327.226,-144 364.774,-144 383.549,-162"/>
<text text-anchor="middle" x="346" y="-158.3" font-family="Times,serif" font-size="14.00">solver</text>
</g>
<!-- LDA&#45;&gt;solver -->
<g id="edge16" class="edge"><title>LDA&#45;&gt;solver</title>
<path fill="none" stroke="black" d="M255.072,-216.941C272.848,-206.395 296.157,-192.568 314.725,-181.553"/>
<polygon fill="black" stroke="black" points="316.599,-184.511 323.414,-176.398 313.028,-178.49 316.599,-184.511"/>
</g>
<!-- lsgr -->
<g id="node13" class="node"><title>lsgr</title>
<polygon fill="none" stroke="black" points="301,-108 247,-108 247,-72 301,-72 301,-108"/>
<text text-anchor="middle" x="274" y="-86.3" font-family="Times,serif" font-size="14.00">lsgr</text>
</g>
<!-- solver&#45;&gt;lsgr -->
<g id="edge12" class="edge"><title>solver&#45;&gt;lsgr</title>
<path fill="none" stroke="black" d="M328.202,-143.697C319.396,-135.135 308.618,-124.656 298.999,-115.304"/>
<polygon fill="black" stroke="black" points="301.203,-112.566 291.593,-108.104 296.323,-117.585 301.203,-112.566"/>
</g>
<!-- eigen -->
<g id="node15" class="node"><title>eigen</title>
<polygon fill="none" stroke="black" points="373,-108 319,-108 319,-72 373,-72 373,-108"/>
<text text-anchor="middle" x="346" y="-86.3" font-family="Times,serif" font-size="14.00">eigen</text>
</g>
<!-- solver&#45;&gt;eigen -->
<g id="edge14" class="edge"><title>solver&#45;&gt;eigen</title>
<path fill="none" stroke="black" d="M346,-143.697C346,-135.983 346,-126.712 346,-118.112"/>
<polygon fill="black" stroke="black" points="349.5,-118.104 346,-108.104 342.5,-118.104 349.5,-118.104"/>
</g>
<!-- svd -->
<g id="node16" class="node"><title>svd</title>
<polygon fill="none" stroke="black" points="445,-108 391,-108 391,-72 445,-72 445,-108"/>
<text text-anchor="middle" x="418" y="-86.3" font-family="Times,serif" font-size="14.00">svd</text>
</g>
<!-- solver&#45;&gt;svd -->
<g id="edge15" class="edge"><title>solver&#45;&gt;svd</title>
<path fill="none" stroke="black" d="M363.798,-143.697C372.604,-135.135 383.382,-124.656 393.001,-115.304"/>
<polygon fill="black" stroke="black" points="395.677,-117.585 400.407,-108.104 390.797,-112.566 395.677,-117.585"/>
</g>
<!-- shrinkage -->
<g id="node14" class="node"><title>shrinkage</title>
<ellipse fill="none" stroke="black" cx="310" cy="-18" rx="44.6926" ry="18"/>
<text text-anchor="middle" x="310" y="-14.3" font-family="Times,serif" font-size="14.00">shrinkage</text>
</g>
<!-- lsgr&#45;&gt;shrinkage -->
<g id="edge11" class="edge"><title>lsgr&#45;&gt;shrinkage</title>
<path fill="none" stroke="black" d="M282.899,-71.6966C286.997,-63.7284 291.949,-54.0995 296.493,-45.2641"/>
<polygon fill="black" stroke="black" points="299.742,-46.598 301.203,-36.1043 293.517,-43.3965 299.742,-46.598"/>
</g>
<!-- eigen&#45;&gt;shrinkage -->
<g id="edge13" class="edge"><title>eigen&#45;&gt;shrinkage</title>
<path fill="none" stroke="black" d="M337.101,-71.6966C333.003,-63.7284 328.051,-54.0995 323.507,-45.2641"/>
<polygon fill="black" stroke="black" points="326.483,-43.3965 318.797,-36.1043 320.258,-46.598 326.483,-43.3965"/>
</g>
</g>
</svg>
