<?xml version="1.0" encoding="UTF-8" standalone="no"?>
<!DOCTYPE svg PUBLIC "-//W3C//DTD SVG 1.1//EN"
 "http://www.w3.org/Graphics/SVG/1.1/DTD/svg11.dtd">
<!-- Generated by graphviz version 2.38.0 (20140413.2041)
 -->
<!-- Title: %3 Pages: 1 -->
<svg width="668pt" height="79pt"
 viewBox="0.00 0.00 668.18 78.70" xmlns="http://www.w3.org/2000/svg" xmlns:xlink="http://www.w3.org/1999/xlink">
<g id="graph0" class="graph" transform="scale(1 1) rotate(0) translate(4 74.6978)">
<title>%3</title>
<polygon fill="white" stroke="none" points="-4,4 -4,-74.6978 664.18,-74.6978 664.18,4 -4,4"/>
<!-- config space -->
<g id="node1" class="node"><title>config space</title>
<ellipse fill="none" stroke="black" cx="55.2451" cy="-38.6978" rx="55.4913" ry="18"/>
<text text-anchor="middle" x="55.2451" y="-34.9978" font-family="Times,serif" font-size="14.00">config space</text>
</g>
<!-- optimizer -->
<g id="node2" class="node"><title>optimizer</title>
<polygon fill="none" stroke="black" points="263.49,-56.6978 194.49,-56.6978 194.49,-20.6978 263.49,-20.6978 263.49,-56.6978"/>
<text text-anchor="middle" x="228.99" y="-34.9978" font-family="Times,serif" font-size="14.00">optimizer</text>
</g>
<!-- config space&#45;&gt;optimizer -->
<g id="edge1" class="edge"><title>config space&#45;&gt;optimizer</title>
<path fill="none" stroke="black" d="M110.586,-38.6978C134.341,-38.6978 161.834,-38.6978 184.24,-38.6978"/>
<polygon fill="black" stroke="black" points="184.468,-42.1979 194.468,-38.6978 184.468,-35.1979 184.468,-42.1979"/>
<text text-anchor="middle" x="152.49" y="-42.4978" font-family="Times,serif" font-size="14.00">initialize</text>
</g>
<!-- config -->
<g id="node3" class="node"><title>config</title>
<ellipse fill="none" stroke="black" cx="352.637" cy="-51.6978" rx="33.2948" ry="18"/>
<text text-anchor="middle" x="352.637" y="-47.9978" font-family="Times,serif" font-size="14.00">config</text>
</g>
<!-- optimizer&#45;&gt;config -->
<g id="edge2" class="edge"><title>optimizer&#45;&gt;config</title>
<path fill="none" stroke="blue" d="M263.725,-50.7587C269.578,-52.3944 275.659,-53.8128 281.49,-54.6978 290.597,-56.0798 300.439,-56.3846 309.789,-56.1277"/>
<polygon fill="blue" stroke="blue" points="310.253,-59.6093 320.071,-55.6264 309.912,-52.6176 310.253,-59.6093"/>
<text text-anchor="start" x="281.49" y="-60.4978" font-family="Times,serif" font-weight="bold" font-size="14.00">ask</text>
</g>
<!-- config&#45;&gt;optimizer -->
<g id="edge5" class="edge"><title>config&#45;&gt;optimizer</title>
<path fill="none" stroke="red" d="M325.2,-41.5843C317.654,-39.1603 309.346,-36.9207 301.49,-35.6978 292.571,-34.3094 282.955,-33.9507 273.756,-34.1491"/>
<polygon fill="red" stroke="red" points="273.448,-30.659 263.608,-34.5846 273.749,-37.6525 273.448,-30.659"/>
<text text-anchor="start" x="281.99" y="-40.4978" font-family="Times,serif" font-weight="bold" font-size="14.00">tell</text>
</g>
<!-- evaluator -->
<g id="node5" class="node"><title>evaluator</title>
<polygon fill="none" stroke="black" points="528.784,-69.6978 461.784,-69.6978 461.784,-33.6978 528.784,-33.6978 528.784,-69.6978"/>
<text text-anchor="middle" x="495.284" y="-47.9978" font-family="Times,serif" font-size="14.00">evaluator</text>
</g>
<!-- config&#45;&gt;evaluator -->
<g id="edge3" class="edge"><title>config&#45;&gt;evaluator</title>
<path fill="none" stroke="black" d="M385.905,-51.6978C405.42,-51.6978 430.53,-51.6978 451.666,-51.6978"/>
<polygon fill="black" stroke="black" points="451.68,-55.1979 461.68,-51.6978 451.68,-48.1979 451.68,-55.1979"/>
<text text-anchor="middle" x="423.784" y="-55.4978" font-family="Times,serif" font-size="14.00">send to</text>
</g>
<!-- loss -->
<g id="node4" class="node"><title>loss</title>
<ellipse fill="none" stroke="black" cx="635.482" cy="-24.6978" rx="24.8972" ry="24.8972"/>
<text text-anchor="middle" x="635.482" y="-20.9978" font-family="Times,serif" font-size="14.00">loss</text>
</g>
<!-- loss&#45;&gt;optimizer -->
<g id="edge6" class="edge"><title>loss&#45;&gt;optimizer</title>
<path fill="none" stroke="red" d="M610.739,-23.6398C558.186,-21.53 428.083,-17.5842 319.49,-24.6978 304.589,-25.674 288.429,-27.852 273.993,-30.2061"/>
<polygon fill="red" stroke="red" points="273.101,-26.8077 263.83,-31.9367 274.276,-33.7084 273.101,-26.8077"/>
<text text-anchor="start" x="414.284" y="-25.4978" font-family="Times,serif" font-weight="bold" font-size="14.00">tell</text>
</g>
<!-- evaluator&#45;&gt;loss -->
<g id="edge4" class="edge"><title>evaluator&#45;&gt;loss</title>
<path fill="none" stroke="black" d="M529.035,-45.2992C550.809,-41.0451 579.315,-35.4759 601.198,-31.2006"/>
<polygon fill="black" stroke="black" points="601.9,-34.6296 611.044,-29.277 600.558,-27.7595 601.9,-34.6296"/>
<text text-anchor="middle" x="569.784" y="-44.4978" font-family="Times,serif" font-size="14.00">evaluate</text>
</g>
</g>
</svg>
