<?xml version="1.0" encoding="UTF-8" standalone="no"?>
<!DOCTYPE svg PUBLIC "-//W3C//DTD SVG 1.1//EN"
 "http://www.w3.org/Graphics/SVG/1.1/DTD/svg11.dtd">
<!-- Generated by graphviz version 2.38.0 (20140413.2041)
 -->
<!-- Title: Layered Dict Pages: 1 -->
<svg width="141pt" height="332pt"
 viewBox="0.00 0.00 141.45 332.00" xmlns="http://www.w3.org/2000/svg" xmlns:xlink="http://www.w3.org/1999/xlink">
<g id="graph0" class="graph" transform="scale(1 1) rotate(0) translate(4 328)">
<title>Layered Dict</title>
<polygon fill="white" stroke="none" points="-4,4 -4,-328 137.447,-328 137.447,4 -4,4"/>
<!-- Classifier -->
<g id="node1" class="node"><title>Classifier</title>
<polygon fill="none" stroke="black" points="97,-324 29,-324 29,-288 97,-288 97,-324"/>
<text text-anchor="middle" x="63" y="-302.3" font-family="Times,serif" font-size="14.00">Classifier</text>
</g>
<!-- SVM -->
<g id="node2" class="node"><title>SVM</title>
<polygon fill="none" stroke="black" points="90,-252 36,-252 36,-216 90,-216 90,-252"/>
<text text-anchor="middle" x="63" y="-230.3" font-family="Times,serif" font-size="14.00">SVM</text>
</g>
<!-- Classifier&#45;&gt;SVM -->
<g id="edge5" class="edge"><title>Classifier&#45;&gt;SVM</title>
<path fill="none" stroke="black" d="M63,-287.697C63,-279.983 63,-270.712 63,-262.112"/>
<polygon fill="black" stroke="black" points="66.5001,-262.104 63,-252.104 59.5001,-262.104 66.5001,-262.104"/>
</g>
<!-- C -->
<g id="node3" class="node"><title>C</title>
<ellipse fill="none" stroke="black" cx="27" cy="-162" rx="27" ry="18"/>
<text text-anchor="middle" x="27" y="-158.3" font-family="Times,serif" font-size="14.00">C</text>
</g>
<!-- SVM&#45;&gt;C -->
<g id="edge1" class="edge"><title>SVM&#45;&gt;C</title>
<path fill="none" stroke="black" d="M54.1011,-215.697C49.836,-207.403 44.6456,-197.311 39.9531,-188.187"/>
<polygon fill="black" stroke="black" points="42.989,-186.437 35.3029,-179.145 36.7639,-189.638 42.989,-186.437"/>
</g>
<!-- kernel -->
<g id="node4" class="node"><title>kernel</title>
<polygon fill="none" stroke="black" points="126,-180 72,-180 72,-144 126,-144 126,-180"/>
<text text-anchor="middle" x="99" y="-158.3" font-family="Times,serif" font-size="14.00">kernel</text>
</g>
<!-- SVM&#45;&gt;kernel -->
<g id="edge4" class="edge"><title>SVM&#45;&gt;kernel</title>
<path fill="none" stroke="black" d="M71.8989,-215.697C75.9968,-207.728 80.9488,-198.1 85.4927,-189.264"/>
<polygon fill="black" stroke="black" points="88.7425,-190.598 90.2035,-180.104 82.5174,-187.396 88.7425,-190.598"/>
</g>
<!-- poly -->
<g id="node5" class="node"><title>poly</title>
<polygon fill="none" stroke="black" points="126,-108 72,-108 72,-72 126,-72 126,-108"/>
<text text-anchor="middle" x="99" y="-86.3" font-family="Times,serif" font-size="14.00">poly</text>
</g>
<!-- kernel&#45;&gt;poly -->
<g id="edge3" class="edge"><title>kernel&#45;&gt;poly</title>
<path fill="none" stroke="black" d="M99,-143.697C99,-135.983 99,-126.712 99,-118.112"/>
<polygon fill="black" stroke="black" points="102.5,-118.104 99,-108.104 95.5001,-118.104 102.5,-118.104"/>
</g>
<!-- degree -->
<g id="node6" class="node"><title>degree</title>
<ellipse fill="none" stroke="black" cx="99" cy="-18" rx="34.394" ry="18"/>
<text text-anchor="middle" x="99" y="-14.3" font-family="Times,serif" font-size="14.00">degree</text>
</g>
<!-- poly&#45;&gt;degree -->
<g id="edge2" class="edge"><title>poly&#45;&gt;degree</title>
<path fill="none" stroke="black" d="M99,-71.6966C99,-63.9827 99,-54.7125 99,-46.1124"/>
<polygon fill="black" stroke="black" points="102.5,-46.1043 99,-36.1043 95.5001,-46.1044 102.5,-46.1043"/>
</g>
</g>
</svg>
