<?xml version="1.0" encoding="UTF-8" standalone="no"?>
<!DOCTYPE svg PUBLIC "-//W3C//DTD SVG 1.1//EN"
 "http://www.w3.org/Graphics/SVG/1.1/DTD/svg11.dtd">
<!-- Generated by graphviz version 2.38.0 (20140413.2041)
 -->
<!-- Title: Config Space Pages: 1 -->
<svg width="1080pt" height="116pt"
 viewBox="0.00 0.00 1080.00 115.61" xmlns="http://www.w3.org/2000/svg" xmlns:xlink="http://www.w3.org/1999/xlink">
<g id="graph0" class="graph" transform="scale(0.614948 0.614948) rotate(0) translate(4 184)">
<title>Config Space</title>
<polygon fill="white" stroke="none" points="-4,4 -4,-184 1752.25,-184 1752.25,4 -4,4"/>
<!-- classifier -->
<g id="node1" class="node"><title>classifier</title>
<polygon fill="none" stroke="black" points="999.811,-162 975.529,-180 926.964,-180 902.682,-162 926.964,-144 975.529,-144 999.811,-162"/>
<text text-anchor="middle" x="951.246" y="-158.3" font-family="Times,serif" font-size="14.00">classifier</text>
</g>
<!-- LinearSVC -->
<g id="node2" class="node"><title>LinearSVC</title>
<polygon fill="none" stroke="black" points="367.246,-108 289.246,-108 289.246,-72 367.246,-72 367.246,-108"/>
<text text-anchor="middle" x="328.246" y="-86.3" font-family="Times,serif" font-size="14.00">LinearSVC</text>
</g>
<!-- classifier&#45;&gt;LinearSVC -->
<g id="edge8" class="edge"><title>classifier&#45;&gt;LinearSVC</title>
<path fill="none" stroke="black" d="M909.887,-156.353C799.242,-143.921 496.782,-109.937 377.526,-96.537"/>
<polygon fill="black" stroke="black" points="377.903,-93.0575 367.575,-95.4189 377.121,-100.014 377.903,-93.0575"/>
</g>
<!-- RandomForestClassifier -->
<g id="node10" class="node"><title>RandomForestClassifier</title>
<polygon fill="none" stroke="black" points="1025.75,-108 876.746,-108 876.746,-72 1025.75,-72 1025.75,-108"/>
<text text-anchor="middle" x="951.246" y="-86.3" font-family="Times,serif" font-size="14.00">RandomForestClassifier</text>
</g>
<!-- classifier&#45;&gt;RandomForestClassifier -->
<g id="edge16" class="edge"><title>classifier&#45;&gt;RandomForestClassifier</title>
<path fill="none" stroke="black" d="M951.246,-143.697C951.246,-135.983 951.246,-126.712 951.246,-118.112"/>
<polygon fill="black" stroke="black" points="954.746,-118.104 951.246,-108.104 947.746,-118.104 954.746,-118.104"/>
</g>
<!-- KNeighborsClassifier -->
<g id="node17" class="node"><title>KNeighborsClassifier</title>
<polygon fill="none" stroke="black" points="1650.25,-108 1516.25,-108 1516.25,-72 1650.25,-72 1650.25,-108"/>
<text text-anchor="middle" x="1583.25" y="-86.3" font-family="Times,serif" font-size="14.00">KNeighborsClassifier</text>
</g>
<!-- classifier&#45;&gt;KNeighborsClassifier -->
<g id="edge20" class="edge"><title>classifier&#45;&gt;KNeighborsClassifier</title>
<path fill="none" stroke="black" d="M992.714,-156.407C1096.89,-144.868 1370.9,-114.52 1505.87,-99.5707"/>
<polygon fill="black" stroke="black" points="1506.57,-103.014 1516.13,-98.4343 1505.8,-96.0565 1506.57,-103.014"/>
</g>
<!-- max_iter -->
<g id="node3" class="node"><title>max_iter</title>
<ellipse fill="none" stroke="black" cx="42.2463" cy="-18" rx="42.4939" ry="18"/>
<text text-anchor="middle" x="42.2463" y="-14.3" font-family="Times,serif" font-size="14.00">max_iter</text>
</g>
<!-- LinearSVC&#45;&gt;max_iter -->
<g id="edge1" class="edge"><title>LinearSVC&#45;&gt;max_iter</title>
<path fill="none" stroke="black" d="M289.05,-81.2875C242.346,-71.8302 162.103,-54.7328 94.2463,-36 90.8473,-35.0617 87.3405,-34.038 83.8288,-32.9734"/>
<polygon fill="black" stroke="black" points="84.5927,-29.5452 74.0039,-29.9019 82.504,-36.2264 84.5927,-29.5452"/>
</g>
<!-- penalty -->
<g id="node4" class="node"><title>penalty</title>
<ellipse fill="none" stroke="black" cx="139.246" cy="-18" rx="36.2938" ry="18"/>
<text text-anchor="middle" x="139.246" y="-14.3" font-family="Times,serif" font-size="14.00">penalty</text>
</g>
<!-- LinearSVC&#45;&gt;penalty -->
<g id="edge2" class="edge"><title>LinearSVC&#45;&gt;penalty</title>
<path fill="none" stroke="black" d="M289.098,-74.6935C260.119,-64.0787 219.69,-49.2174 184.246,-36 181.85,-35.1064 179.383,-34.1832 176.896,-33.2505"/>
<polygon fill="black" stroke="black" points="177.91,-29.8924 167.318,-29.6471 175.445,-36.4441 177.91,-29.8924"/>
</g>
<!-- dual -->
<g id="node5" class="node"><title>dual</title>
<ellipse fill="none" stroke="black" cx="220.246" cy="-18" rx="27" ry="18"/>
<text text-anchor="middle" x="220.246" y="-14.3" font-family="Times,serif" font-size="14.00">dual</text>
</g>
<!-- LinearSVC&#45;&gt;dual -->
<g id="edge3" class="edge"><title>LinearSVC&#45;&gt;dual</title>
<path fill="none" stroke="black" d="M301.826,-71.8761C285.387,-61.2209 264.286,-47.5443 247.663,-36.7701"/>
<polygon fill="black" stroke="black" points="249.242,-33.6226 238.947,-31.1206 245.435,-39.4967 249.242,-33.6226"/>
</g>
<!-- loss -->
<g id="node6" class="node"><title>loss</title>
<ellipse fill="none" stroke="black" cx="292.246" cy="-18" rx="27" ry="18"/>
<text text-anchor="middle" x="292.246" y="-14.3" font-family="Times,serif" font-size="14.00">loss</text>
</g>
<!-- LinearSVC&#45;&gt;loss -->
<g id="edge4" class="edge"><title>LinearSVC&#45;&gt;loss</title>
<path fill="none" stroke="black" d="M319.347,-71.6966C315.082,-63.4033 309.892,-53.3109 305.199,-44.1866"/>
<polygon fill="black" stroke="black" points="308.235,-42.4367 300.549,-35.1446 302.01,-45.6382 308.235,-42.4367"/>
</g>
<!-- C -->
<g id="node7" class="node"><title>C</title>
<ellipse fill="none" stroke="black" cx="364.246" cy="-18" rx="27" ry="18"/>
<text text-anchor="middle" x="364.246" y="-14.3" font-family="Times,serif" font-size="14.00">C</text>
</g>
<!-- LinearSVC&#45;&gt;C -->
<g id="edge5" class="edge"><title>LinearSVC&#45;&gt;C</title>
<path fill="none" stroke="black" d="M337.145,-71.6966C341.41,-63.4033 346.601,-53.3109 351.293,-44.1866"/>
<polygon fill="black" stroke="black" points="354.482,-45.6382 355.943,-35.1446 348.257,-42.4367 354.482,-45.6382"/>
</g>
<!-- multi_class -->
<g id="node8" class="node"><title>multi_class</title>
<ellipse fill="none" stroke="black" cx="460.246" cy="-18" rx="51.1914" ry="18"/>
<text text-anchor="middle" x="460.246" y="-14.3" font-family="Times,serif" font-size="14.00">multi_class</text>
</g>
<!-- LinearSVC&#45;&gt;multi_class -->
<g id="edge6" class="edge"><title>LinearSVC&#45;&gt;multi_class</title>
<path fill="none" stroke="black" d="M360.537,-71.8761C379.777,-61.6731 404.241,-48.6997 424.122,-38.157"/>
<polygon fill="black" stroke="black" points="425.988,-41.1289 433.183,-33.3517 422.709,-34.9446 425.988,-41.1289"/>
</g>
<!-- random_state -->
<g id="node9" class="node"><title>random_state</title>
<ellipse fill="none" stroke="black" cx="588.246" cy="-18" rx="58.4896" ry="18"/>
<text text-anchor="middle" x="588.246" y="-14.3" font-family="Times,serif" font-size="14.00">random_state</text>
</g>
<!-- LinearSVC&#45;&gt;random_state -->
<g id="edge7" class="edge"><title>LinearSVC&#45;&gt;random_state</title>
<path fill="none" stroke="black" d="M367.452,-78.4445C412.311,-66.3671 485.979,-46.5335 535.76,-33.131"/>
<polygon fill="black" stroke="black" points="536.945,-36.4366 545.691,-30.4572 535.125,-29.6773 536.945,-36.4366"/>
</g>
<!-- RandomForestClassifier&#45;&gt;random_state -->
<g id="edge15" class="edge"><title>RandomForestClassifier&#45;&gt;random_state</title>
<path fill="none" stroke="black" d="M876.447,-77.1228C816.428,-67.2284 730.13,-52.1828 655.246,-36 650.58,-34.9916 645.746,-33.8861 640.909,-32.738"/>
<polygon fill="black" stroke="black" points="641.573,-29.2976 631.03,-30.3391 639.922,-36.1 641.573,-29.2976"/>
</g>
<!-- n_estimators -->
<g id="node11" class="node"><title>n_estimators</title>
<ellipse fill="none" stroke="black" cx="720.246" cy="-18" rx="55.7903" ry="18"/>
<text text-anchor="middle" x="720.246" y="-14.3" font-family="Times,serif" font-size="14.00">n_estimators</text>
</g>
<!-- RandomForestClassifier&#45;&gt;n_estimators -->
<g id="edge9" class="edge"><title>RandomForestClassifier&#45;&gt;n_estimators</title>
<path fill="none" stroke="black" d="M895.033,-71.9656C856.702,-60.3503 806.42,-45.1133 769.631,-33.9651"/>
<polygon fill="black" stroke="black" points="770.219,-30.4861 759.634,-30.9356 768.189,-37.1853 770.219,-30.4861"/>
</g>
<!-- criterion -->
<g id="node12" class="node"><title>criterion</title>
<ellipse fill="none" stroke="black" cx="834.246" cy="-18" rx="40.0939" ry="18"/>
<text text-anchor="middle" x="834.246" y="-14.3" font-family="Times,serif" font-size="14.00">criterion</text>
</g>
<!-- RandomForestClassifier&#45;&gt;criterion -->
<g id="edge10" class="edge"><title>RandomForestClassifier&#45;&gt;criterion</title>
<path fill="none" stroke="black" d="M922.625,-71.8761C905.572,-61.6737 883.89,-48.7013 866.269,-38.159"/>
<polygon fill="black" stroke="black" points="867.849,-35.0258 857.471,-32.8951 864.255,-41.0328 867.849,-35.0258"/>
</g>
<!-- max_features -->
<g id="node13" class="node"><title>max_features</title>
<ellipse fill="none" stroke="black" cx="951.246" cy="-18" rx="58.4896" ry="18"/>
<text text-anchor="middle" x="951.246" y="-14.3" font-family="Times,serif" font-size="14.00">max_features</text>
</g>
<!-- RandomForestClassifier&#45;&gt;max_features -->
<g id="edge11" class="edge"><title>RandomForestClassifier&#45;&gt;max_features</title>
<path fill="none" stroke="black" d="M951.246,-71.6966C951.246,-63.9827 951.246,-54.7125 951.246,-46.1124"/>
<polygon fill="black" stroke="black" points="954.746,-46.1043 951.246,-36.1043 947.746,-46.1044 954.746,-46.1043"/>
</g>
<!-- min_samples_split -->
<g id="node14" class="node"><title>min_samples_split</title>
<ellipse fill="none" stroke="black" cx="1105.25" cy="-18" rx="77.1866" ry="18"/>
<text text-anchor="middle" x="1105.25" y="-14.3" font-family="Times,serif" font-size="14.00">min_samples_split</text>
</g>
<!-- RandomForestClassifier&#45;&gt;min_samples_split -->
<g id="edge12" class="edge"><title>RandomForestClassifier&#45;&gt;min_samples_split</title>
<path fill="none" stroke="black" d="M988.919,-71.8761C1011.15,-61.773 1039.35,-48.9536 1062.42,-38.4675"/>
<polygon fill="black" stroke="black" points="1063.98,-41.6037 1071.63,-34.2793 1061.08,-35.2312 1063.98,-41.6037"/>
</g>
<!-- min_samples_leaf -->
<g id="node15" class="node"><title>min_samples_leaf</title>
<ellipse fill="none" stroke="black" cx="1276.25" cy="-18" rx="75.2868" ry="18"/>
<text text-anchor="middle" x="1276.25" y="-14.3" font-family="Times,serif" font-size="14.00">min_samples_leaf</text>
</g>
<!-- RandomForestClassifier&#45;&gt;min_samples_leaf -->
<g id="edge13" class="edge"><title>RandomForestClassifier&#45;&gt;min_samples_leaf</title>
<path fill="none" stroke="black" d="M1025.81,-72.9406C1082.15,-60.8061 1158.67,-44.3251 1212.24,-32.7852"/>
<polygon fill="black" stroke="black" points="1213.27,-36.1452 1222.31,-30.618 1211.79,-29.3021 1213.27,-36.1452"/>
</g>
<!-- bootstrap -->
<g id="node16" class="node"><title>bootstrap</title>
<ellipse fill="none" stroke="black" cx="1413.25" cy="-18" rx="43.5923" ry="18"/>
<text text-anchor="middle" x="1413.25" y="-14.3" font-family="Times,serif" font-size="14.00">bootstrap</text>
</g>
<!-- RandomForestClassifier&#45;&gt;bootstrap -->
<g id="edge14" class="edge"><title>RandomForestClassifier&#45;&gt;bootstrap</title>
<path fill="none" stroke="black" d="M1025.84,-83.4271C1108.37,-76.316 1244.94,-61.7389 1360.25,-36 1363.9,-35.1836 1367.67,-34.2243 1371.43,-33.1843"/>
<polygon fill="black" stroke="black" points="1372.67,-36.4676 1381.27,-30.2854 1370.69,-29.7526 1372.67,-36.4676"/>
</g>
<!-- n_neighbors -->
<g id="node18" class="node"><title>n_neighbors</title>
<ellipse fill="none" stroke="black" cx="1528.25" cy="-18" rx="53.8905" ry="18"/>
<text text-anchor="middle" x="1528.25" y="-14.3" font-family="Times,serif" font-size="14.00">n_neighbors</text>
</g>
<!-- KNeighborsClassifier&#45;&gt;n_neighbors -->
<g id="edge17" class="edge"><title>KNeighborsClassifier&#45;&gt;n_neighbors</title>
<path fill="none" stroke="black" d="M1569.65,-71.6966C1563.03,-63.2653 1554.94,-52.9748 1547.68,-43.7323"/>
<polygon fill="black" stroke="black" points="1550.24,-41.3231 1541.31,-35.6223 1544.73,-45.6479 1550.24,-41.3231"/>
</g>
<!-- weights -->
<g id="node19" class="node"><title>weights</title>
<ellipse fill="none" stroke="black" cx="1638.25" cy="-18" rx="38.1938" ry="18"/>
<text text-anchor="middle" x="1638.25" y="-14.3" font-family="Times,serif" font-size="14.00">weights</text>
</g>
<!-- KNeighborsClassifier&#45;&gt;weights -->
<g id="edge18" class="edge"><title>KNeighborsClassifier&#45;&gt;weights</title>
<path fill="none" stroke="black" d="M1596.84,-71.6966C1603.63,-63.0541 1611.96,-52.4579 1619.36,-43.0394"/>
<polygon fill="black" stroke="black" points="1622.14,-45.1702 1625.56,-35.1446 1616.63,-40.8454 1622.14,-45.1702"/>
</g>
<!-- p -->
<g id="node20" class="node"><title>p</title>
<ellipse fill="none" stroke="black" cx="1721.25" cy="-18" rx="27" ry="18"/>
<text text-anchor="middle" x="1721.25" y="-14.3" font-family="Times,serif" font-size="14.00">p</text>
</g>
<!-- KNeighborsClassifier&#45;&gt;p -->
<g id="edge19" class="edge"><title>KNeighborsClassifier&#45;&gt;p</title>
<path fill="none" stroke="black" d="M1617,-71.8761C1639.66,-60.382 1669.26,-45.372 1691.12,-34.2821"/>
<polygon fill="black" stroke="black" points="1692.93,-37.2856 1700.27,-29.6404 1689.77,-31.0428 1692.93,-37.2856"/>
</g>
</g>
</svg>
