<?xml version="1.0" encoding="UTF-8" standalone="no"?>
<!DOCTYPE svg PUBLIC "-//W3C//DTD SVG 1.1//EN"
 "http://www.w3.org/Graphics/SVG/1.1/DTD/svg11.dtd">
<!-- Generated by graphviz version 2.38.0 (20140413.2041)
 -->
<!-- Title: Config Space Pages: 1 -->
<svg width="204pt" height="188pt"
 viewBox="0.00 0.00 204.39 188.00" xmlns="http://www.w3.org/2000/svg" xmlns:xlink="http://www.w3.org/1999/xlink">
<g id="graph0" class="graph" transform="scale(1 1) rotate(0) translate(4 184)">
<title>Config Space</title>
<polygon fill="white" stroke="none" points="-4,4 -4,-184 200.394,-184 200.394,4 -4,4"/>
<!-- Classifier -->
<g id="node1" class="node"><title>Classifier</title>
<polygon fill="none" stroke="black" points="131.066,-162 105.533,-180 54.4668,-180 28.9335,-162 54.4668,-144 105.533,-144 131.066,-162"/>
<text text-anchor="middle" x="80" y="-158.3" font-family="Times,serif" font-size="14.00">Classifier</text>
</g>
<!-- SVM -->
<g id="node2" class="node"><title>SVM</title>
<polygon fill="none" stroke="black" points="63,-108 9,-108 9,-72 63,-72 63,-108"/>
<text text-anchor="middle" x="36" y="-86.3" font-family="Times,serif" font-size="14.00">SVM</text>
</g>
<!-- Classifier&#45;&gt;SVM -->
<g id="edge2" class="edge"><title>Classifier&#45;&gt;SVM</title>
<path fill="none" stroke="black" d="M69.1236,-143.697C64.0084,-135.559 57.8045,-125.689 52.1551,-116.701"/>
<polygon fill="black" stroke="black" points="55.0363,-114.708 46.7513,-108.104 49.1098,-118.433 55.0363,-114.708"/>
</g>
<!-- LDA -->
<g id="node4" class="node"><title>LDA</title>
<polygon fill="none" stroke="black" points="152,-108 98,-108 98,-72 152,-72 152,-108"/>
<text text-anchor="middle" x="125" y="-86.3" font-family="Times,serif" font-size="14.00">LDA</text>
</g>
<!-- Classifier&#45;&gt;LDA -->
<g id="edge4" class="edge"><title>Classifier&#45;&gt;LDA</title>
<path fill="none" stroke="black" d="M91.1236,-143.697C96.355,-135.559 102.7,-125.689 108.478,-116.701"/>
<polygon fill="black" stroke="black" points="111.541,-118.409 114.004,-108.104 105.653,-114.623 111.541,-118.409"/>
</g>
<!-- C -->
<g id="node3" class="node"><title>C</title>
<ellipse fill="none" stroke="black" cx="27" cy="-18" rx="27" ry="18"/>
<text text-anchor="middle" x="27" y="-14.3" font-family="Times,serif" font-size="14.00">C</text>
</g>
<!-- SVM&#45;&gt;C -->
<g id="edge1" class="edge"><title>SVM&#45;&gt;C</title>
<path fill="none" stroke="black" d="M33.7753,-71.6966C32.7835,-63.9827 31.5916,-54.7125 30.4859,-46.1124"/>
<polygon fill="black" stroke="black" points="33.9459,-45.5763 29.1991,-36.1043 27.003,-46.469 33.9459,-45.5763"/>
</g>
<!-- n_components -->
<g id="node5" class="node"><title>n_components</title>
<ellipse fill="none" stroke="black" cx="134" cy="-18" rx="62.2891" ry="18"/>
<text text-anchor="middle" x="134" y="-14.3" font-family="Times,serif" font-size="14.00">n_components</text>
</g>
<!-- LDA&#45;&gt;n_components -->
<g id="edge3" class="edge"><title>LDA&#45;&gt;n_components</title>
<path fill="none" stroke="black" d="M127.225,-71.6966C128.217,-63.9827 129.408,-54.7125 130.514,-46.1124"/>
<polygon fill="black" stroke="black" points="133.997,-46.469 131.801,-36.1043 127.054,-45.5763 133.997,-46.469"/>
</g>
</g>
</svg>
