<?xml version="1.0" encoding="UTF-8" standalone="no"?>
<!DOCTYPE svg PUBLIC "-//W3C//DTD SVG 1.1//EN"
 "http://www.w3.org/Graphics/SVG/1.1/DTD/svg11.dtd">
<!-- Generated by graphviz version 2.38.0 (20140413.2041)
 -->
<!-- Title: Layered Dict Pages: 1 -->
<svg width="655pt" height="188pt"
 viewBox="0.00 0.00 655.49 188.00" xmlns="http://www.w3.org/2000/svg" xmlns:xlink="http://www.w3.org/1999/xlink">
<g id="graph0" class="graph" transform="scale(1 1) rotate(0) translate(4 184)">
<title>Layered Dict</title>
<polygon fill="white" stroke="none" points="-4,4 -4,-184 651.495,-184 651.495,4 -4,4"/>
<!-- classifier -->
<g id="node1" class="node"><title>classifier</title>
<polygon fill="none" stroke="black" points="290.5,-180 225.5,-180 225.5,-144 290.5,-144 290.5,-180"/>
<text text-anchor="middle" x="258" y="-158.3" font-family="Times,serif" font-size="14.00">classifier</text>
</g>
<!-- LinearSVC -->
<g id="node2" class="node"><title>LinearSVC</title>
<polygon fill="none" stroke="black" points="297,-108 219,-108 219,-72 297,-72 297,-108"/>
<text text-anchor="middle" x="258" y="-86.3" font-family="Times,serif" font-size="14.00">LinearSVC</text>
</g>
<!-- classifier&#45;&gt;LinearSVC -->
<g id="edge8" class="edge"><title>classifier&#45;&gt;LinearSVC</title>
<path fill="none" stroke="black" d="M258,-143.697C258,-135.983 258,-126.712 258,-118.112"/>
<polygon fill="black" stroke="black" points="261.5,-118.104 258,-108.104 254.5,-118.104 261.5,-118.104"/>
</g>
<!-- C -->
<g id="node3" class="node"><title>C</title>
<ellipse fill="none" stroke="black" cx="27" cy="-18" rx="27" ry="18"/>
<text text-anchor="middle" x="27" y="-14.3" font-family="Times,serif" font-size="14.00">C</text>
</g>
<!-- LinearSVC&#45;&gt;C -->
<g id="edge1" class="edge"><title>LinearSVC&#45;&gt;C</title>
<path fill="none" stroke="black" d="M218.892,-80.5091C179.065,-71.3674 115.83,-55.4811 63,-36 61.1518,-35.3185 59.2689,-34.578 57.382,-33.8001"/>
<polygon fill="black" stroke="black" points="58.6185,-30.5205 48.0555,-29.6992 55.8008,-36.9284 58.6185,-30.5205"/>
</g>
<!-- dual -->
<g id="node4" class="node"><title>dual</title>
<ellipse fill="none" stroke="black" cx="99" cy="-18" rx="27" ry="18"/>
<text text-anchor="middle" x="99" y="-14.3" font-family="Times,serif" font-size="14.00">dual</text>
</g>
<!-- LinearSVC&#45;&gt;dual -->
<g id="edge2" class="edge"><title>LinearSVC&#45;&gt;dual</title>
<path fill="none" stroke="black" d="M218.796,-72.5127C194.562,-62.2205 162.869,-48.58 135,-36 133.205,-35.1895 131.363,-34.3489 129.507,-33.4947"/>
<polygon fill="black" stroke="black" points="130.807,-30.2392 120.264,-29.1893 127.851,-36.5845 130.807,-30.2392"/>
</g>
<!-- loss -->
<g id="node5" class="node"><title>loss</title>
<ellipse fill="none" stroke="black" cx="171" cy="-18" rx="27" ry="18"/>
<text text-anchor="middle" x="171" y="-14.3" font-family="Times,serif" font-size="14.00">loss</text>
</g>
<!-- LinearSVC&#45;&gt;loss -->
<g id="edge3" class="edge"><title>LinearSVC&#45;&gt;loss</title>
<path fill="none" stroke="black" d="M236.494,-71.6966C224.111,-61.7332 208.501,-49.1733 195.627,-38.8148"/>
<polygon fill="black" stroke="black" points="197.609,-35.917 187.623,-32.3751 193.22,-41.3708 197.609,-35.917"/>
</g>
<!-- max_iter -->
<g id="node6" class="node"><title>max_iter</title>
<ellipse fill="none" stroke="black" cx="258" cy="-18" rx="42.4939" ry="18"/>
<text text-anchor="middle" x="258" y="-14.3" font-family="Times,serif" font-size="14.00">max_iter</text>
</g>
<!-- LinearSVC&#45;&gt;max_iter -->
<g id="edge4" class="edge"><title>LinearSVC&#45;&gt;max_iter</title>
<path fill="none" stroke="black" d="M258,-71.6966C258,-63.9827 258,-54.7125 258,-46.1124"/>
<polygon fill="black" stroke="black" points="261.5,-46.1043 258,-36.1043 254.5,-46.1044 261.5,-46.1043"/>
</g>
<!-- multi_class -->
<g id="node7" class="node"><title>multi_class</title>
<ellipse fill="none" stroke="black" cx="370" cy="-18" rx="51.1914" ry="18"/>
<text text-anchor="middle" x="370" y="-14.3" font-family="Times,serif" font-size="14.00">multi_class</text>
</g>
<!-- LinearSVC&#45;&gt;multi_class -->
<g id="edge5" class="edge"><title>LinearSVC&#45;&gt;multi_class</title>
<path fill="none" stroke="black" d="M285.398,-71.8761C301.026,-62.1089 320.716,-49.8028 337.167,-39.5207"/>
<polygon fill="black" stroke="black" points="339.302,-42.3137 345.927,-34.0456 335.592,-36.3777 339.302,-42.3137"/>
</g>
<!-- penalty -->
<g id="node8" class="node"><title>penalty</title>
<ellipse fill="none" stroke="black" cx="476" cy="-18" rx="36.2938" ry="18"/>
<text text-anchor="middle" x="476" y="-14.3" font-family="Times,serif" font-size="14.00">penalty</text>
</g>
<!-- LinearSVC&#45;&gt;penalty -->
<g id="edge6" class="edge"><title>LinearSVC&#45;&gt;penalty</title>
<path fill="none" stroke="black" d="M297.134,-77.6104C332.125,-67.268 384.718,-51.3311 430,-36 432.722,-35.0785 435.525,-34.1045 438.342,-33.1079"/>
<polygon fill="black" stroke="black" points="439.646,-36.3582 447.868,-29.6756 437.274,-29.7726 439.646,-36.3582"/>
</g>
<!-- random_state -->
<g id="node9" class="node"><title>random_state</title>
<ellipse fill="none" stroke="black" cx="589" cy="-18" rx="58.4896" ry="18"/>
<text text-anchor="middle" x="589" y="-14.3" font-family="Times,serif" font-size="14.00">random_state</text>
</g>
<!-- LinearSVC&#45;&gt;random_state -->
<g id="edge7" class="edge"><title>LinearSVC&#45;&gt;random_state</title>
<path fill="none" stroke="black" d="M297.331,-81.6608C348.854,-71.9122 441.942,-53.8381 521,-36 525.722,-34.9345 530.619,-33.7896 535.522,-32.6158"/>
<polygon fill="black" stroke="black" points="536.649,-35.9438 545.54,-30.1818 534.997,-29.1417 536.649,-35.9438"/>
</g>
</g>
</svg>
